<?xml version="1.0" encoding="utf-8"?>
<!-- Generator: Adobe Illustrator 18.0.0, SVG Export Plug-In . SVG Version: 6.00 Build 0)  -->
<!DOCTYPE svg PUBLIC "-//W3C//DTD SVG 1.1//EN" "http://www.w3.org/Graphics/SVG/1.1/DTD/svg11.dtd">
<svg version="1.1" id="Layer_1" xmlns="http://www.w3.org/2000/svg" xmlns:xlink="http://www.w3.org/1999/xlink" x="0px" y="0px"
	 viewBox="0 0 23.7 42.9" enable-background="new 0 0 23.7 42.9" xml:space="preserve">
<g>
	<g>
		<path fill="#1D1D1B" d="M6.2,41.9l-4.3-2.3v-33l4.9-1.3l0,35.5l14-4V2.2L17.9,3v32.4l-8.5,2.4V4.4L14.3,3v30.4l-3.9,1.1v2l6.5-1.8
			V2.2l4.9-1.3v36.5L6.2,41.9z M2.9,38.9l2.9,1.6l0-34L2.9,7.2V38.9z M10.4,5.1v28.3l2.9-0.8V4.3L10.4,5.1z"/>
	</g>
	<g>
		<rect x="13.5" y="33.5" transform="matrix(0.88 0.475 -0.475 0.88 18.0188 -3.3311)" fill="#1D1D1B" width="4.1" height="1"/>
	</g>
</g>
</svg>
